<?xml version="1.0" standalone="no"?>
<!DOCTYPE svg PUBLIC "-//W3C//DTD SVG 20010904//EN"
 "http://www.w3.org/TR/2001/REC-SVG-20010904/DTD/svg10.dtd">
<svg version="1.0" xmlns="http://www.w3.org/2000/svg"
 width="2500.000000pt" height="2500.000000pt" viewBox="0 0 2500.000000 2500.000000"
 preserveAspectRatio="xMidYMid meet">
<metadata>
Created by potrace 1.14, written by Peter Selinger 2001-2017
</metadata>
<g transform="translate(0.000000,2500.000000) scale(0.100000,-0.100000)"
fill="#000000" stroke="none">
<path d="M8358 23695 c-2 -2 -102 -6 -223 -9 -121 -4 -247 -9 -280 -11 -33 -2
-109 -6 -170 -10 -137 -8 -165 -10 -400 -30 -94 -8 -181 -17 -199 -21 -10 -2
-48 -6 -83 -9 -36 -3 -68 -7 -72 -9 -3 -2 -37 -7 -76 -11 -38 -4 -72 -8 -75
-10 -3 -1 -32 -6 -65 -10 -33 -3 -94 -13 -135 -20 -41 -8 -90 -17 -107 -20
-70 -11 -106 -18 -153 -29 -14 -3 -36 -8 -50 -10 -14 -2 -43 -9 -65 -14 -22
-6 -55 -14 -74 -17 -19 -3 -37 -8 -41 -10 -4 -2 -20 -6 -36 -9 -158 -28 -655
-194 -829 -276 -22 -10 -83 -39 -135 -64 -85 -40 -153 -76 -275 -145 -123 -71
-337 -220 -450 -316 -33 -27 -71 -59 -84 -70 -39 -32 -241 -236 -298 -301
-354 -404 -619 -913 -801 -1544 -17 -58 -36 -125 -42 -150 -6 -25 -12 -52 -14
-60 -42 -169 -117 -550 -131 -670 -3 -25 -10 -72 -15 -105 -5 -33 -12 -85 -15
-115 -3 -30 -8 -66 -10 -80 -2 -14 -6 -52 -9 -85 -4 -33 -8 -80 -11 -105 -9
-91 -15 -157 -20 -225 -3 -38 -8 -95 -10 -125 -2 -30 -7 -107 -11 -170 -3 -63
-7 -144 -9 -180 -16 -287 -19 -1317 -19 -6815 0 -5518 3 -6433 19 -6536 2 -13
6 -51 10 -84 48 -451 200 -976 406 -1400 61 -127 178 -340 220 -403 16 -24 29
-45 29 -47 0 -6 132 -199 178 -260 108 -142 134 -175 212 -265 131 -152 328
-348 460 -460 29 -25 69 -59 89 -76 118 -100 433 -320 556 -389 28 -15 88 -49
135 -75 143 -79 325 -164 500 -232 220 -86 497 -171 665 -203 22 -5 45 -9 50
-11 40 -9 181 -34 221 -39 27 -4 56 -8 64 -10 8 -3 44 -7 80 -10 36 -4 76 -9
90 -11 14 -2 77 -7 140 -12 149 -9 10882 -9 11020 0 176 13 444 49 600 83 14
2 34 7 45 9 154 31 413 108 605 179 408 150 857 405 1200 681 223 179 510 460
650 635 19 24 40 49 45 55 6 6 24 29 40 51 17 22 33 42 36 45 4 3 19 24 35 46
16 23 54 77 84 120 234 334 430 727 562 1129 28 83 51 157 53 165 2 8 18 69
35 135 16 66 32 129 35 140 14 68 46 246 50 280 3 22 9 72 15 110 17 130 20
157 27 289 10 169 9 12472 0 12836 -4 151 -9 307 -12 345 -2 39 -6 124 -10
190 -4 66 -8 138 -10 160 -2 22 -6 76 -9 120 -3 45 -8 101 -10 125 -3 25 -8
75 -11 112 -3 37 -8 77 -10 90 -2 13 -6 54 -10 91 -3 37 -8 77 -10 87 -2 10
-6 45 -10 77 -3 32 -8 65 -10 73 -2 8 -6 38 -10 65 -3 28 -8 57 -10 65 -2 8
-6 38 -10 65 -3 28 -8 57 -10 65 -5 17 -13 58 -21 110 -14 88 -72 340 -118
515 -114 432 -304 873 -521 1210 -74 115 -68 106 -173 244 -151 197 -315 366
-517 534 -86 72 -94 78 -125 98 -14 9 -36 26 -49 38 -13 11 -28 21 -32 21 -4
0 -14 6 -21 13 -40 40 -336 212 -493 287 -339 162 -785 309 -1170 386 -191 38
-269 52 -320 60 -16 2 -41 6 -55 9 -14 3 -77 12 -140 21 -63 8 -126 17 -140
19 -14 2 -50 6 -80 10 -30 3 -71 7 -90 10 -34 4 -67 8 -195 20 -118 11 -151
14 -245 20 -52 3 -120 8 -150 10 -30 2 -116 7 -190 11 -74 3 -166 8 -205 11
-71 5 -8562 13 -8567 8z m8452 -1568 c47 -3 153 -8 235 -12 83 -4 166 -8 185
-10 19 -2 82 -6 140 -10 58 -4 116 -8 130 -10 14 -2 59 -6 100 -10 41 -3 91
-8 110 -10 19 -2 60 -7 90 -10 30 -3 84 -10 120 -15 36 -5 83 -12 105 -15 714
-99 1286 -312 1635 -610 124 -106 298 -314 378 -453 93 -161 194 -397 254
-592 28 -92 82 -298 92 -350 3 -14 12 -57 20 -96 9 -39 18 -88 21 -110 3 -21
10 -61 15 -89 17 -90 29 -169 35 -225 4 -30 8 -66 10 -80 2 -14 6 -50 10 -80
3 -30 8 -71 10 -90 2 -19 7 -66 10 -105 3 -38 8 -86 10 -105 2 -19 7 -78 10
-130 3 -52 8 -126 10 -165 7 -107 15 -303 21 -480 4 -119 8 -7814 5 -8065 l-1
-45 -7053 0 c-6194 -1 -7248 -3 -7301 -20 -6 -2 -40 -7 -76 -11 -381 -40 -836
-179 -1215 -372 -157 -79 -366 -205 -457 -275 l-38 -29 -1 24 c-3 143 2 8710
5 8813 9 234 16 407 21 465 2 30 7 98 10 150 4 52 8 111 10 130 2 19 7 73 10
120 3 47 8 96 10 110 2 14 7 50 10 80 3 30 8 66 10 80 2 14 7 50 10 80 11 89
54 348 76 449 11 51 22 102 24 113 3 11 16 66 31 122 14 55 27 106 29 111 1 6
5 17 8 25 3 8 19 60 37 115 91 289 235 565 397 762 277 340 690 569 1301 722
64 17 128 32 142 35 373 70 680 114 935 131 44 3 94 8 110 10 17 2 89 7 160
10 72 4 150 9 175 11 25 1 164 6 310 10 146 3 266 7 267 8 4 4 8210 -3 8283
-7z m3757 -14432 c5 -1581 4 -2119 -1 -2175 -12 -131 -17 -176 -21 -190 -2 -8
-7 -35 -10 -60 -21 -156 -117 -513 -146 -544 -5 -6 -9 -15 -9 -22 0 -26 -120
-280 -193 -409 -57 -100 -181 -282 -243 -355 -307 -362 -612 -606 -979 -782
-44 -22 -87 -43 -96 -47 -62 -34 -296 -116 -439 -154 -143 -38 -334 -71 -496
-84 -111 -8 -10711 -10 -10849 -1 -94 6 -300 33 -337 44 -9 3 -27 7 -40 9
-102 19 -334 85 -403 115 -11 4 -40 16 -65 25 -130 49 -334 153 -485 248 -209
133 -512 399 -661 582 -27 33 -51 62 -55 65 -3 3 -33 43 -66 90 -291 404 -480
893 -527 1360 -3 30 -9 80 -12 110 -7 68 -7 993 1 1075 6 64 10 93 25 192 17
105 80 332 115 408 7 17 23 55 36 85 139 333 420 680 734 905 249 178 595 328
855 369 19 3 46 8 60 10 66 12 102 16 190 22 52 4 96 7 97 8 1 0 3155 1 7010
1 l7008 -1 2 -899z"/>
<path d="M8207 18480 c-383 -65 -662 -402 -652 -788 3 -132 26 -224 86 -343
28 -56 129 -190 165 -219 111 -89 178 -127 286 -163 41 -14 103 -28 139 -32
78 -9 8500 -9 8549 0 304 54 533 248 629 532 26 77 35 139 35 243 0 104 -6
143 -38 245 -80 251 -301 451 -568 515 -82 19 -150 19 -4333 18 -2337 0 -4271
-4 -4298 -8z"/>
<path d="M8287 14844 c-1 -1 -27 -5 -57 -8 -30 -4 -80 -13 -110 -22 -67 -19
-205 -85 -242 -116 -14 -13 -46 -40 -71 -60 -87 -72 -186 -228 -221 -350 -25
-83 -26 -95 -30 -198 -13 -337 183 -633 504 -758 135 -53 -17 -51 2905 -48
l2710 2 73 22 c490 150 717 679 480 1122 -119 224 -332 372 -583 406 -39 6
-5352 13 -5358 8z"/>
</g>
</svg>
